<svg id="Component_27_1" data-name="Component 27 – 1" xmlns="http://www.w3.org/2000/svg" width="21.118" height="21.125" viewBox="0 0 21.118 21.125">
  <g id="Group_947" data-name="Group 947">
    <g id="Group_945" data-name="Group 945">
      <circle id="Ellipse_380" data-name="Ellipse 380" cx="10.006" cy="10.006" r="10.006" transform="translate(0.553 0.56)" fill="#fff"/>
      <path id="Path_1054" data-name="Path 1054" d="M42.559,48.725A10.563,10.563,0,1,1,53.118,38.159,10.567,10.567,0,0,1,42.559,48.725Zm0-20.019a9.453,9.453,0,1,0,9.453,9.453A9.463,9.463,0,0,0,42.559,28.706Z" transform="translate(-32 -27.6)" fill="#00abd1"/>
    </g>
    <g id="Group_946" data-name="Group 946" transform="translate(3.296 2.301)">
      <path id="Path_1055" data-name="Path 1055" d="M76.725,73.333s-.457-1.991,2.809-3.554a17.661,17.661,0,0,1,2.05-.944.972.972,0,0,0,.347-1.593,6.427,6.427,0,0,1-1.7-4.83,3.631,3.631,0,0,1,3.79-3.613,3.52,3.52,0,0,1,3.7,2.986,6.739,6.739,0,0,1-1,4.616s-1.652,1.63-.4,2.389,2.64.8,4.173,2.36a2.375,2.375,0,0,1,.553,1.873v.936s-2.02,3.119-6.938,2.972c-3.915-.118-5.855-1-6.9-2.529A2.066,2.066,0,0,1,76.725,73.333Z" transform="translate(-76.703 -58.8)" fill="#00abd1"/>
    </g>
  </g>
</svg>
