<svg xmlns="http://www.w3.org/2000/svg" xmlns:xlink="http://www.w3.org/1999/xlink" width="88" height="88" viewBox="0 0 88 88">
  <defs>
    <filter id="Rectangle_1760" x="0" y="0" width="88" height="88" filterUnits="userSpaceOnUse">
      <feOffset dy="3" input="SourceAlpha"/>
      <feGaussianBlur stdDeviation="3" result="blur"/>
      <feFlood flood-opacity="0.161"/>
      <feComposite operator="in" in2="blur"/>
      <feComposite in="SourceGraphic"/>
    </filter>
  </defs>
  <g id="Group_1813" data-name="Group 1813" transform="translate(-96 -730)">
    <g transform="matrix(1, 0, 0, 1, 96, 730)" filter="url(#Rectangle_1760)">
      <g id="Rectangle_1760-2" data-name="Rectangle 1760" transform="translate(9 6)" fill="#fff" stroke="#707070" stroke-width="0.05">
        <rect width="70" height="70" rx="20" stroke="none"/>
        <rect x="0.025" y="0.025" width="69.95" height="69.95" rx="19.975" fill="none"/>
      </g>
    </g>
    <path id="Path_1819" data-name="Path 1819" d="M110.173.653a9.748,9.748,0,0,0-.111,1.071.56.56,0,0,0,1.119,0A9.755,9.755,0,0,0,111.07.653c-.019-.113-.041-.227-.064-.341a.392.392,0,0,0-.768,0c-.023.113-.044.227-.064.341" transform="translate(42.58 748.249)" fill="#00abd1"/>
    <path id="Path_1820" data-name="Path 1820" d="M124.06,5.023a9.645,9.645,0,0,0-.684.832.56.56,0,0,0,.933.617,9.633,9.633,0,0,0,.5-.955c.046-.105.092-.212.135-.32a.392.392,0,0,0-.641-.423c-.082.082-.163.165-.241.249" transform="translate(33.581 745.079)" fill="#00abd1"/>
    <path id="Path_1821" data-name="Path 1821" d="M133.88,18.019q.146-.093.288-.193a.392.392,0,0,0-.3-.706c-.114.023-.226.048-.339.075a9.594,9.594,0,0,0-1.029.318.56.56,0,0,0,.439,1.03,9.819,9.819,0,0,0,.942-.523" transform="translate(27.529 736.602)" fill="#00abd1"/>
    <path id="Path_1822" data-name="Path 1822" d="M134.361,31.951a.56.56,0,0,0-.2,1.1,9.6,9.6,0,0,0,1.074.083c.116,0,.231,0,.347,0a.392.392,0,0,0,.138-.756c-.108-.044-.216-.085-.324-.124a9.654,9.654,0,0,0-1.034-.3" transform="translate(26.477 726.51)" fill="#00abd1"/>
    <path id="Path_1823" data-name="Path 1823" d="M128.329,44.405a.56.56,0,0,0-.775.807,9.624,9.624,0,0,0,.851.662c.1.065.192.128.29.19a.392.392,0,0,0,.532-.554q-.1-.143-.2-.282a9.636,9.636,0,0,0-.7-.822" transform="translate(30.788 718.127)" fill="#00abd1"/>
    <path id="Path_1824" data-name="Path 1824" d="M115.84,53.1a.392.392,0,0,0,.749-.169c0-.116-.007-.232-.012-.347a9.752,9.752,0,0,0-.128-1.07.56.56,0,0,0-1.091.247,9.665,9.665,0,0,0,.345,1.021c.044.106.09.213.138.318" transform="translate(38.986 713.471)" fill="#00abd1"/>
    <path id="Path_1825" data-name="Path 1825" d="M102.013,50.865a.56.56,0,0,0-1.046-.4,9.672,9.672,0,0,0-.275,1.042c-.022.114-.042.227-.061.342a.392.392,0,0,0,.719.271c.062-.1.122-.2.18-.3a9.631,9.631,0,0,0,.483-.963" transform="translate(49.003 714.131)" fill="#00abd1"/>
    <path id="Path_1826" data-name="Path 1826" d="M89.553,42.694a.56.56,0,0,0-.655-.907,9.615,9.615,0,0,0-.8.718q-.121.124-.239.251a.392.392,0,0,0,.45.623q.159-.071.314-.148a9.575,9.575,0,0,0,.934-.537" transform="translate(57.768 719.878)" fill="#00abd1"/>
    <path id="Path_1827" data-name="Path 1827" d="M84.2,29.75a.519.519,0,0,0,.517-.551.555.555,0,0,0-.563-.567,9.744,9.744,0,0,0-1.066.156c-.113.024-.225.05-.338.078a.392.392,0,0,0,.032.768q.171.028.343.049a9.663,9.663,0,0,0,1.075.067" transform="translate(61.374 728.762)" fill="#00abd1"/>
    <path id="Path_1828" data-name="Path 1828" d="M87.309,13.767q-.161-.063-.325-.121a.392.392,0,0,0-.4.658q.128.118.259.231a9.63,9.63,0,0,0,.86.649.56.56,0,0,0,.577-.959,9.7,9.7,0,0,0-.975-.458" transform="translate(58.646 738.978)" fill="#00abd1"/>
    <path id="Path_1829" data-name="Path 1829" d="M98.932,4.57a.56.56,0,0,0,1.01-.481,9.666,9.666,0,0,0-.562-.919c-.066-.095-.134-.188-.2-.281a.392.392,0,0,0-.694.331c.028.112.057.224.089.335a9.658,9.658,0,0,0,.36,1.015" transform="translate(50.47 746.39)" fill="#00abd1"/>
    <path id="Path_1830" data-name="Path 1830" d="M51.052,64.285H35.95v-8.01h4.192A1.929,1.929,0,0,0,42.025,53.9a1.963,1.963,0,0,0,.014-.226V45.825a1.934,1.934,0,0,0-3.869,0v6.58H35.95V37.3a2.794,2.794,0,0,0-5.588,0v9.912H27.251v-6.58a1.934,1.934,0,1,0-3.869,0V48.48a1.9,1.9,0,0,0,.014.226,1.927,1.927,0,0,0,1.881,2.376h5.084v13.2h-12.1a.4.4,0,1,0,0,.8h32.79a.4.4,0,1,0,0-.8" transform="translate(105.338 724.76)" fill="#00abd1"/>
    <path id="Path_1831" data-name="Path 1831" d="M105.194,17.55a5.861,5.861,0,0,0-.643-3.291,5.943,5.943,0,0,0-2.348-2.393,5.783,5.783,0,0,0-2.334-.7c-.156-.012-.313-.024-.472-.024s-.316.011-.472.024a5.814,5.814,0,0,0-5.342,5.572c0,.077-.012.152-.012.23a5.931,5.931,0,0,0,.847,3.014A5.768,5.768,0,0,0,96.9,22.23a5.754,5.754,0,0,0,.883.336,5.775,5.775,0,0,0,5.47-1.239,5.884,5.884,0,0,0,.657-.678,5.963,5.963,0,0,0,1.28-3.1" transform="translate(53.805 740.663)" fill="#00abd1"/>
    <path id="Path_1832" data-name="Path 1832" d="M12.329,14.887a1.92,1.92,0,0,0,1.754-2.069c0-.068-.009-.135-.018-.2,0-.019-.007-.038-.011-.057-.008-.046-.015-.092-.026-.137-.005-.023-.013-.046-.019-.07-.011-.039-.021-.079-.033-.117s-.019-.049-.028-.073-.026-.071-.041-.1-.024-.049-.035-.072-.031-.065-.048-.1-.028-.047-.042-.07-.036-.06-.055-.089-.033-.045-.049-.067-.04-.054-.061-.08-.037-.042-.056-.063-.043-.049-.066-.072-.042-.039-.062-.058-.046-.043-.071-.064-.045-.035-.068-.052-.05-.039-.076-.056-.048-.031-.073-.046-.052-.033-.08-.047-.052-.027-.078-.039-.055-.027-.083-.039l-.082-.032-.087-.03c-.028-.009-.057-.015-.085-.023s-.06-.015-.09-.02-.059-.01-.088-.014-.061-.009-.093-.011l-.09,0c-.044,0-.088,0-.133,0,0-.02,0-.04.008-.059a3.056,3.056,0,0,1-.747,1.165,3.942,3.942,0,0,0,.342-2.526A3.281,3.281,0,0,0,8.19,6.872a3.591,3.591,0,0,0-.954.238c-.035.017-.069.034-.1.052s-.071.035-.1.055c-.077.043-.152.091-.226.141l-.043.028c-.086.06-.17.124-.25.191-.028.024-.055.05-.083.075-.052.046-.1.092-.152.141-.031.031-.059.063-.088.1s-.086.094-.127.142S6,8.1,5.976,8.138s-.075.1-.11.152-.051.076-.076.116-.066.108-.1.164c-.022.04-.044.08-.065.121-.03.059-.057.119-.083.18-.018.04-.036.08-.052.121-.027.068-.05.139-.073.209-.011.036-.025.071-.035.108-.031.108-.058.219-.079.331a1.977,1.977,0,0,0-.151-.2c-.017-.021-.035-.04-.053-.06-.039-.042-.078-.084-.12-.123-.022-.021-.044-.04-.067-.06q-.063-.054-.13-.1c-.023-.017-.045-.034-.069-.049-.054-.036-.11-.068-.166-.1L4.5,8.915a2.261,2.261,0,0,0-.228-.1L4.221,8.8c-.06-.021-.121-.039-.184-.055l-.083-.019C3.9,8.713,3.841,8.7,3.784,8.7L3.7,8.685c-.061-.006-.123-.009-.185-.01l-.07,0a2.547,2.547,0,0,0-.314.022l-.067.011a2.51,2.51,0,0,0-.293.063l-.033.008a2.762,2.762,0,0,0-.311.115l-.07.032a2.79,2.79,0,0,0-.3.164,2.342,2.342,0,0,0-.893,3.179A1.267,1.267,0,0,0,0,13.631a1.382,1.382,0,0,0,.036.26c.006.027.017.051.025.077a1.39,1.39,0,0,0,.055.164c.013.029.03.054.044.082a1.471,1.471,0,0,0,.075.134c.019.027.042.051.062.077s.058.076.091.109.052.044.078.066a1.272,1.272,0,0,0,.105.086c.029.02.06.034.091.051a1.2,1.2,0,0,0,.117.062c.033.014.067.022.1.033a1.2,1.2,0,0,0,.125.036c.036.007.073.008.11.011a1.122,1.122,0,0,0,.158.01H12.329Z" transform="translate(117.496 743.585)" fill="#00abd1"/>
    <rect id="Rectangle_1591" data-name="Rectangle 1591" width="44.945" height="41.593" transform="translate(117.496 748.249)" fill="none"/>
  </g>
</svg>
