<svg xmlns="http://www.w3.org/2000/svg" xmlns:xlink="http://www.w3.org/1999/xlink" width="487.92" height="141.836" viewBox="0 0 487.92 141.836">
  <defs>
    <clipPath id="clip-path">
      <rect id="Rectangle_1560" data-name="Rectangle 1560" width="487.92" height="141.836" fill="none"/>
    </clipPath>
    <filter id="Path_1628" x="-5.643" y="20.964" width="84.834" height="122.183" filterUnits="userSpaceOnUse">
      <feOffset dy="3" input="SourceAlpha"/>
      <feGaussianBlur stdDeviation="3" result="blur"/>
      <feFlood flood-opacity="0.161"/>
      <feComposite operator="in" in2="blur"/>
      <feComposite in="SourceGraphic"/>
    </filter>
    <clipPath id="clip-path-2">
      <path id="Path_1633" data-name="Path 1633" d="M34.707,30.483A31,31,0,0,0,3.794,61.4v42.355a31,31,0,0,0,30.913,30.913h5.009a31,31,0,0,0,30.913-30.913V96.565H45.987v9.3a9.908,9.908,0,0,1-19.816,0V60.2a9.908,9.908,0,0,1,19.816,0v9.6H70.629V61.4A31,31,0,0,0,39.716,30.483Z" transform="translate(-3.794 -30.483)" fill="none"/>
    </clipPath>
    <filter id="Path_1634" x="228.378" y="20.964" width="84.835" height="122.183" filterUnits="userSpaceOnUse">
      <feOffset dy="3" input="SourceAlpha"/>
      <feGaussianBlur stdDeviation="3" result="blur-2"/>
      <feFlood flood-opacity="0.161"/>
      <feComposite operator="in" in2="blur-2"/>
      <feComposite in="SourceGraphic"/>
    </filter>
    <clipPath id="clip-path-4">
      <path id="Path_1636" data-name="Path 1636" d="M299.26,30.483A31,31,0,0,0,268.346,61.4v42.355a31,31,0,0,0,30.914,30.913h5.008a31,31,0,0,0,30.913-30.913V96.565H310.538v9.3a9.908,9.908,0,0,1-19.816,0V60.2a9.908,9.908,0,0,1,19.816,0v9.6h24.643V61.4a31,31,0,0,0-30.913-30.914Z" transform="translate(-268.346 -30.483)" fill="none"/>
    </clipPath>
    <filter id="Path_1637" x="72.763" y="22.093" width="85.461" height="121.055" filterUnits="userSpaceOnUse">
      <feOffset dy="3" input="SourceAlpha"/>
      <feGaussianBlur stdDeviation="3" result="blur-3"/>
      <feFlood flood-opacity="0.161"/>
      <feComposite operator="in" in2="blur-3"/>
      <feComposite in="SourceGraphic"/>
    </filter>
    <clipPath id="clip-path-6">
      <path id="Path_1640" data-name="Path 1640" d="M124.788,57.349l10.392,39.615H118.807ZM113.9,31.757,92.429,134.812H113.9l2.548-20.689h18.73l3.53,20.689h21.18L135.181,31.757Z" transform="translate(-92.429 -31.757)" fill="none"/>
    </clipPath>
    <filter id="Path_1641" x="151.796" y="21.014" width="83.011" height="122.135" filterUnits="userSpaceOnUse">
      <feOffset dy="3" input="SourceAlpha"/>
      <feGaussianBlur stdDeviation="3" result="blur-4"/>
      <feFlood flood-opacity="0.161"/>
      <feComposite operator="in" in2="blur-4"/>
      <feComposite in="SourceGraphic"/>
    </filter>
    <clipPath id="clip-path-8">
      <path id="Path_1643" data-name="Path 1643" d="M223.838,30.538V80.692l-20-50.154H181.773V134.672h22.063V85.693l20,48.978h22.945V30.538Z" transform="translate(-181.773 -30.538)" fill="none"/>
    </clipPath>
    <filter id="Path_1644" x="389.543" y="21.014" width="83.01" height="122.135" filterUnits="userSpaceOnUse">
      <feOffset dy="3" input="SourceAlpha"/>
      <feGaussianBlur stdDeviation="3" result="blur-5"/>
      <feFlood flood-opacity="0.161"/>
      <feComposite operator="in" in2="blur-5"/>
      <feComposite in="SourceGraphic"/>
    </filter>
    <clipPath id="clip-path-10">
      <path id="Path_1649" data-name="Path 1649" d="M492.6,30.538V80.692l-20-50.154H450.536V134.672H472.6V85.693l20,48.978h22.944V30.538Z" transform="translate(-450.536 -30.538)" fill="none"/>
    </clipPath>
    <filter id="Path_1650" x="306.784" y="20.279" width="89.187" height="122.87" filterUnits="userSpaceOnUse">
      <feOffset dy="3" input="SourceAlpha"/>
      <feGaussianBlur stdDeviation="3" result="blur-6"/>
      <feFlood flood-opacity="0.161"/>
      <feComposite operator="in" in2="blur-6"/>
      <feComposite in="SourceGraphic"/>
    </filter>
    <clipPath id="clip-path-12">
      <path id="Path_1666" data-name="Path 1666" d="M402.376,29.707c.034.347.053.7.053,1.054v70.7a10.646,10.646,0,0,1-10.615,10.615h-.832a10.647,10.647,0,0,1-10.616-10.615v-70.7c0-.356.019-.708.054-1.054H356.981V98.982a35.594,35.594,0,0,0,71.188,0V29.707Z" transform="translate(-356.981 -29.707)" fill="none"/>
    </clipPath>
  </defs>
  <g id="Group_1828" data-name="Group 1828" transform="translate(-714.965 -59)">
    <g id="Group_1280" data-name="Group 1280" transform="translate(714.965 59)">
      <g id="Group_1279" data-name="Group 1279" clip-path="url(#clip-path)">
        <g transform="matrix(1, 0, 0, 1, 0, 0)" filter="url(#Path_1628)">
          <path id="Path_1628-2" data-name="Path 1628" d="M45.987,96.565v9.294a9.908,9.908,0,0,1-19.816,0V60.2a9.908,9.908,0,0,1,19.816,0v9.6H70.629V61.4A31,31,0,0,0,39.716,30.482H34.708A31,31,0,0,0,3.795,61.4v42.356a31,31,0,0,0,30.913,30.913h5.008a31,31,0,0,0,30.913-30.913V96.565Z" transform="translate(-0.44 -3.52)" fill="#ee0107"/>
        </g>
      </g>
    </g>
    <g id="Group_1282" data-name="Group 1282" transform="translate(718.321 85.965)">
      <g id="Group_1281" data-name="Group 1281" clip-path="url(#clip-path-2)">
        <path id="Path_1629" data-name="Path 1629" d="M20.8,116.006s2.157-1.324.343-2.794c-1.765-2.305-5.049,1.961-5.049,1.961s-4.12,3.383.539,8.285a9.744,9.744,0,0,0,14.463.049c3.186-3.628,5.1-6.177,5.1-6.177l10.3-4.364s.638,14.806-21.817,22.9S9.92,122.918,9.92,122.918l1.373-.49s-2.3-10.639,7.844-14.07C29.482,106,30.021,114.828,28.6,118.531" transform="translate(-4.354 -39.425)" fill="#7a3145"/>
        <path id="Path_1630" data-name="Path 1630" d="M8.714,110.229s4.78-13.458,20.775-1.03v-2.243S12.281,89.71,8.714,110.229" transform="translate(-4.362 -38.526)" fill="#7a3145"/>
        <path id="Path_1631" data-name="Path 1631" d="M29.587,86.271S12.673,83.035,3.995,66.563,3.48,54.5,3.48,54.5s3.825-.736,4.413-1.986,4.118-15.076,5.294-15.443a16.05,16.05,0,0,1,3.53-.588c1.029-.074,5-5.883,5.074-7.208s3.016-2.868,3.016-2.868l2.059.221S19.88,44.5,15.909,52.736s-1.03,20.445,11.914,27.578,1.765,5.957,1.765,5.957" transform="translate(-3.356 -30.013)" fill="#7a3145"/>
        <path id="Path_1632" data-name="Path 1632" d="M28.905,77.766S18.02,69.9,23.831,49.233c6.177-12.5,10.442-21.18,9.339-25.151h4.12l-.809,3.823s2.353-1.985,2.059,1.251-5.223,8.825-5.223,8.825,6.546,4.044.663,7.8c-6.913.368-10.148,11.179-5.3,24.857s.221,7.133.221,7.133" transform="translate(-5.909 -29.744)" fill="#7a3145"/>
      </g>
    </g>
    <g id="Group_1284" data-name="Group 1284" transform="translate(714.965 59)">
      <g id="Group_1283" data-name="Group 1283" clip-path="url(#clip-path)">
        <g transform="matrix(1, 0, 0, 1, 0, 0)" filter="url(#Path_1634)">
          <path id="Path_1634-2" data-name="Path 1634" d="M310.539,96.565v9.294a9.908,9.908,0,0,1-19.816,0V60.2a9.908,9.908,0,0,1,19.816,0v9.6h24.642V61.4a31.005,31.005,0,0,0-30.914-30.914H299.26A31,31,0,0,0,268.346,61.4v42.356a31,31,0,0,0,30.914,30.913h5.007a31,31,0,0,0,30.914-30.913V96.565Z" transform="translate(-30.97 -3.52)" fill="#ab0022"/>
        </g>
      </g>
    </g>
    <g id="Group_1286" data-name="Group 1286" transform="translate(952.343 85.965)">
      <g id="Group_1285" data-name="Group 1285" clip-path="url(#clip-path-4)">
        <path id="Path_1635" data-name="Path 1635" d="M272.436,33.1l18.238,87.072h44.713l-25.445,25.445h-42.8V32.81Z" transform="translate(-268.207 -30.752)" fill="#9f1f50"/>
      </g>
    </g>
    <g id="Group_1288" data-name="Group 1288" transform="translate(714.965 59)">
      <g id="Group_1287" data-name="Group 1287" clip-path="url(#clip-path)">
        <g transform="matrix(1, 0, 0, 1, 0, 0)" filter="url(#Path_1637)">
          <path id="Path_1637-2" data-name="Path 1637" d="M135.182,31.758H113.9L92.43,134.813H113.9l2.548-20.69h18.73l3.53,20.69h21.18ZM118.807,96.964l5.982-39.614,10.393,39.614Z" transform="translate(-10.67 -3.67)" fill="#ff0053"/>
        </g>
      </g>
    </g>
    <g id="Group_1290" data-name="Group 1290" transform="translate(796.728 87.092)">
      <g id="Group_1289" data-name="Group 1289" clip-path="url(#clip-path-6)">
        <path id="Path_1638" data-name="Path 1638" d="M92.307,143.338h21.547l4.56-37.285H100.25l-3.825,17.871h9.193l1.287-6.766h-4.67l1.471-6.913h8.53l-4.044,26.475H93.777Z" transform="translate(-92.415 -40.331)" fill="#7d4272"/>
        <path id="Path_1639" data-name="Path 1639" d="M143.819,143.433l-5.983-37.408h18.337l4.314,17.895h-9.463l-1.372-6.717h4.02l-1.323-6.962h-7.6l4.559,26.474h14.17l1.619,6.619Z" transform="translate(-97.669 -40.328)" fill="#7d4272"/>
      </g>
    </g>
    <g id="Group_1292" data-name="Group 1292" transform="translate(714.965 59)">
      <g id="Group_1291" data-name="Group 1291" clip-path="url(#clip-path)">
        <g transform="matrix(1, 0, 0, 1, 0, 0)" filter="url(#Path_1641)">
          <path id="Path_1641-2" data-name="Path 1641" d="M203.835,134.672H181.773V30.538h22.062l20,50.154V30.538h22.945V134.672H223.839l-20-48.98Z" transform="translate(-20.98 -3.52)" fill="#fdc300"/>
        </g>
      </g>
    </g>
    <g id="Group_1294" data-name="Group 1294" transform="translate(875.761 86.014)">
      <g id="Group_1293" data-name="Group 1293" clip-path="url(#clip-path-8)">
        <path id="Path_1642" data-name="Path 1642" d="M250.767,101.531,234.294,84.567l13.434-15.2L233.51,71.33l13.335-19.512L227.921,63.093,225.665,42.5,216.84,55.837l-6.374-16.375-4.9,24.808L186.738,48.189l9.806,20.493-15.2.1,14.217,12.649L181.835,98.392l12.943-6.177-9.9,21.965,17.749-13.924-2.06,23.435L212.33,107.9l8.433,19.71,3.138-25.69,19.513,13.727-11.767-21.18Zm-31.721-3.824a14.464,14.464,0,0,1-5.662-27.774,14.467,14.467,0,0,0,18.974,18.973,14.466,14.466,0,0,1-13.311,8.8" transform="translate(-181.724 -31.568)" fill="#fd8000"/>
      </g>
    </g>
    <g id="Group_1296" data-name="Group 1296" transform="translate(714.965 59)">
      <g id="Group_1295" data-name="Group 1295" clip-path="url(#clip-path)">
        <g transform="matrix(1, 0, 0, 1, 0, 0)" filter="url(#Path_1644)">
          <path id="Path_1644-2" data-name="Path 1644" d="M472.6,134.672H450.537V30.538H472.6l20,50.154V30.538h22.945V134.672H492.6l-20-48.98Z" transform="translate(-51.99 -3.52)" fill="#00bcd7"/>
        </g>
      </g>
    </g>
    <g id="Group_1298" data-name="Group 1298" transform="translate(1113.507 86.014)">
      <g id="Group_1297" data-name="Group 1297" clip-path="url(#clip-path-10)">
        <path id="Path_1645" data-name="Path 1645" d="M447.378,59.145c16.167,12.478,84.944-67.4,76.188-14.122-3.99-10.074-71.446,31.244-76.188,14.122" transform="translate(-450.172 -30.072)" fill="#00acb8"/>
        <path id="Path_1646" data-name="Path 1646" d="M452.23,77.759c40.529,10.537,39.737-28.115,87.563,1.861-6.095-7.558-67.3,9.273-76.189,5.6-13.321-4.882-17.436,6.535-11.373-7.458" transform="translate(-450.416 -34.859)" fill="#00acb8"/>
        <path id="Path_1647" data-name="Path 1647" d="M447.151,97.324s29.808,3.137,42.752,11.472c17.793,9.8,39.188-2.132,35.985,18.73-16.005,3.923-56.133-29.753-74.815-18.04-4.607,3.232-3.921-12.162-3.921-12.162" transform="translate(-450.141 -38.245)" fill="#00acb8"/>
        <path id="Path_1648" data-name="Path 1648" d="M440.13,129.726s46.675-18.238,80.013,6.276-1.961,1.078-1.961,1.078-21.277-9.511-78.541,4.314.49-11.669.49-11.669" transform="translate(-446.356 -41.232)" fill="#00acb8"/>
      </g>
    </g>
    <g id="Group_1300" data-name="Group 1300" transform="translate(714.965 59)">
      <g id="Group_1299" data-name="Group 1299" clip-path="url(#clip-path)">
        <g transform="matrix(1, 0, 0, 1, 0, 0)" filter="url(#Path_1650)">
          <path id="Path_1650-2" data-name="Path 1650" d="M402.375,29.707c.034.347.054.7.054,1.054v70.7a10.646,10.646,0,0,1-10.615,10.615h-.832a10.647,10.647,0,0,1-10.615-10.615v-70.7c0-.356.019-.708.054-1.054H356.981V98.982a35.593,35.593,0,1,0,71.187,0V29.707Z" transform="translate(-41.2 -3.43)" fill="#d4e827"/>
        </g>
      </g>
    </g>
    <g id="Group_1302" data-name="Group 1302" transform="translate(1030.749 85.279)">
      <g id="Group_1301" data-name="Group 1301" clip-path="url(#clip-path-12)">
        <path id="Path_1651" data-name="Path 1651" d="M401.037,132.534a11.171,11.171,0,0,1-.2,3.473c-.563,2.221-1.031,4.5-3.075,6a6.379,6.379,0,0,1-6.73.946,6.131,6.131,0,0,1-3.2-3.59,14.693,14.693,0,0,1-.7-6.557,58.6,58.6,0,0,1,1.513-9.089c.193-.8.209-.794.932-.384a5.045,5.045,0,0,0,1.618.624c.515.088.586.344.585.778-.009,1.877-.241,3.738-.357,5.608s-.226,3.714.9,5.37a1.437,1.437,0,0,0,2.357.457,3.437,3.437,0,0,0,1.185-1.887,17.531,17.531,0,0,0,.874-5.26,41.639,41.639,0,0,0,.041-4.281c-.016-.3.1-.426.35-.462a11.815,11.815,0,0,0,2.258-.617c.434-.153.506.067.582.375a20.921,20.921,0,0,1,.563,2.328,38.345,38.345,0,0,1,.5,6.162" transform="translate(-360.451 -40.481)" fill="#039717"/>
        <path id="Path_1652" data-name="Path 1652" d="M414.531,79.514c-1.062,0-1.978-.02-2.894.009-.454.014-.648-.111-.635-.6.019-.69.042-1.381.067-2.07.019-.57.31-.674.737-.714,1.6-.148,3.2-.307,4.8-.43,1.852-.142,3.707-.164,5.562-.129a11.51,11.51,0,0,1,5.8,1.5,6.093,6.093,0,0,1,2.909,4.8c.3,2.546-.992,4.312-2.921,5.772A9.309,9.309,0,0,1,422.8,89.28a30.626,30.626,0,0,1-6.849-.556c-1.5-.226-2.977-.588-4.457-.929a.683.683,0,0,1-.628-.832c.035-.624.082-1.249.068-1.872-.012-.492.135-.672.654-.632,1.69.131,3.384.222,5.078.326a13.032,13.032,0,0,0,5.4-.5c.9-.332,1.751-.8,1.843-1.956a1.7,1.7,0,0,0-.7-1.565,5.514,5.514,0,0,0-3.015-.945,35.6,35.6,0,0,0-5.669-.309" transform="translate(-363.199 -35)" fill="#039717"/>
        <path id="Path_1653" data-name="Path 1653" d="M420.537,119.9A35.1,35.1,0,0,1,409.01,116.6c-.19-.085-.434-.173-.26-.42a24.074,24.074,0,0,0,1.151-2.483c.083-.152.124-.207.341-.163a48.294,48.294,0,0,0,6.177,1.184,10.874,10.874,0,0,0,4.256-.395,2.576,2.576,0,0,0,1.24-.979c.408-.541.25-1.1-.309-1.657a8.75,8.75,0,0,0-4.628-2.063,49.675,49.675,0,0,0-6.131-1.092c-.539-.047-.7-.274-.631-.826a16.045,16.045,0,0,0,.069-2.063c0-.372.123-.5.517-.475a68.224,68.224,0,0,1,9.851.8,14.759,14.759,0,0,1,6.069,2.4,6.129,6.129,0,0,1,1.938,2.714,6.361,6.361,0,0,1-2.61,7.6,9.632,9.632,0,0,1-5.514,1.228" transform="translate(-362.949 -38.415)" fill="#039717"/>
        <path id="Path_1654" data-name="Path 1654" d="M368.594,56.7a11.484,11.484,0,0,1-5.009-.9,6.763,6.763,0,0,1-3.826-3.7c-1.109-2.51.314-6.165,2.7-7.523a13.763,13.763,0,0,1,7.523-1.619,52.256,52.256,0,0,1,7.362.8c.549.1,1.093.226,1.642.324.31.055.464.187.445.533-.036.667-.05,1.338-.042,2.006,0,.387-.187.525-.53.519-1.092-.019-2.181.04-3.279-.052a32.916,32.916,0,0,0-4.337.135,8.74,8.74,0,0,0-3.7,1.016,3.2,3.2,0,0,0-.767.527,1.316,1.316,0,0,0,.25,2.188,11.828,11.828,0,0,0,5.114,1.394c2.139.255,4.272-.152,6.411-.057.469.02.7.08.662.617-.055.731-.044,1.466-.053,2.2,0,.275-.135.393-.4.435-1.63.262-3.262.51-4.885.806a32.1,32.1,0,0,1-5.282.356" transform="translate(-357.257 -31.234)" fill="#039717"/>
        <path id="Path_1655" data-name="Path 1655" d="M421.939,57.193a61.451,61.451,0,0,1-8.966-1.308c-1.421-.333-1.419-.341-1.4-1.821.018-1.586.021-1.629,1.609-1.509a57.765,57.765,0,0,0,6.207.247,15.205,15.205,0,0,0,3.623-.5,2.633,2.633,0,0,0,.661-.319,1.766,1.766,0,0,0,.116-3.155,6.612,6.612,0,0,0-3.739-1.231q-2.769-.215-5.542-.293c-.735-.021-1.472.018-2.207.044-.44.016-.662-.115-.625-.614.049-.69.045-1.384.036-2.076-.006-.382.122-.541.522-.6a79.877,79.877,0,0,1,8.519-.82,18.379,18.379,0,0,1,5.823.625A6.351,6.351,0,0,1,430.95,48a7.788,7.788,0,0,1,.456,2.745c0,2.179-1.33,3.524-2.917,4.692a9.294,9.294,0,0,1-6.55,1.757" transform="translate(-363.28 -31.266)" fill="#039717"/>
        <path id="Path_1656" data-name="Path 1656" d="M373.854,84.163c1.28.076,2.612-.133,3.954-.137.547,0,.7.194.658.709-.047.645-.038,1.3-.024,1.943a.6.6,0,0,1-.578.719,57.108,57.108,0,0,1-7.169.87c-.961.052-1.92.126-2.878.217a9.26,9.26,0,0,1-8.6-4.779,5.531,5.531,0,0,1,1.839-6.741,10.957,10.957,0,0,1,7.971-2.221,55.287,55.287,0,0,1,6.266.579c.942.175,1.88.38,2.82.567a.619.619,0,0,1,.569.7c-.017.647-.027,1.294-.023,1.941,0,.479-.176.651-.686.621-1.914-.115-3.821-.388-5.745-.321a14,14,0,0,0-4.424.59c-.849.315-1.742.657-1.991,1.692a1.49,1.49,0,0,0,.893,1.744A10.258,10.258,0,0,0,370.45,84a16.624,16.624,0,0,0,3.4.161" transform="translate(-357.182 -34.9)" fill="#039717"/>
        <path id="Path_1657" data-name="Path 1657" d="M366.627,118.394a9.185,9.185,0,0,1-5.3-1.541,5.9,5.9,0,0,1-2.5-4.463,5.258,5.258,0,0,1,1.718-4.539,12,12,0,0,1,4.941-2.562,26.731,26.731,0,0,1,7.048-.626c1.184-.005,2.368-.025,3.552-.031.247,0,.493.021.737.043,1.177.107,1.219.155,1.208,1.31-.02,1.912-.021,1.894-1.907,2.032a47.37,47.37,0,0,0-7.408,1.087,6.284,6.284,0,0,0-2.376,1.188,1.565,1.565,0,0,0,.469,2.8,12.282,12.282,0,0,0,5.545.607,25.667,25.667,0,0,0,5-.839c.563-.171.906,0,1.082.622a7.678,7.678,0,0,0,.716,1.566c.251.461.277.755-.328.919-1.635.441-3.25.963-4.894,1.361a31.1,31.1,0,0,1-5.843,1.058c-.486.023-.974,0-1.461,0" transform="translate(-357.191 -38.354)" fill="#039717"/>
        <path id="Path_1658" data-name="Path 1658" d="M419.8,64.7a11.369,11.369,0,0,1,5.828,1.4c1.184.761,1.26,1.682.106,2.506a7.489,7.489,0,0,1-4.994,1.441,47,47,0,0,1-8.7-1.443c-.54-.141-.825-.354-.725-.953.112-.678-.171-1.532.23-2.007.382-.454,1.251-.309,1.905-.422A32.67,32.67,0,0,1,419.8,64.7" transform="translate(-363.25 -33.746)" fill="#039717"/>
        <path id="Path_1659" data-name="Path 1659" d="M380.267,35.106a9.751,9.751,0,0,0-.1,1.533c.057.667-.381.842-.837.875-2.666.191-5.318.6-8,.6a12.091,12.091,0,0,1-4.468-.667,2.226,2.226,0,0,1-1.5-1.958c-.087-.807.614-1.194,1.16-1.594a5.668,5.668,0,0,1,3.4-.956,45.424,45.424,0,0,1,9.882,1.182c.647.14.482.579.457.985" transform="translate(-357.948 -30.08)" fill="#039717"/>
        <path id="Path_1660" data-name="Path 1660" d="M371.748,68.961a16.557,16.557,0,0,1-4.858-.41,4.5,4.5,0,0,1-1.968-.932,1.248,1.248,0,0,1-.159-2.017,5.334,5.334,0,0,1,3.94-1.673,37.129,37.129,0,0,1,6.322.551,32.083,32.083,0,0,1,4.016.705c.361.091.557.2.545.594-.021.688-.017,1.378-.02,2.067,0,.338-.237.371-.5.41a34.544,34.544,0,0,1-7.32.705" transform="translate(-357.828 -33.654)" fill="#039717"/>
        <path id="Path_1661" data-name="Path 1661" d="M420,38.043c-2.565-.069-5.115-.3-7.658-.62-.3-.037-.488-.155-.476-.51.022-.691.023-1.383.014-2.073,0-.358.163-.489.5-.573a41.014,41.014,0,0,1,7.763-1.29,12.913,12.913,0,0,1,5.653.646,3.188,3.188,0,0,1,.7.382c1.077.8.972,1.212.233,2.111a4.052,4.052,0,0,1-2.362,1.41c-.717.152-1.437.316-2.162.4s-1.47.08-2.205.116" transform="translate(-363.315 -30.079)" fill="#039717"/>
        <path id="Path_1662" data-name="Path 1662" d="M370.43,94.962a78.116,78.116,0,0,1,8.082.947.346.346,0,0,1,.341.4c0,.045,0,.089,0,.134.087,2.323.015,2.423-2.509,2.938a32.631,32.631,0,0,1-7.578.669,12,12,0,0,1-3.535-.632c-1.361-.472-2.12-1.62-.656-3.006a5.006,5.006,0,0,1,3.092-1.3c.934-.081,1.873-.105,2.763-.152" transform="translate(-357.766 -37.238)" fill="#039717"/>
        <path id="Path_1663" data-name="Path 1663" d="M418.3,95.912a15.967,15.967,0,0,1,5.856.983c.781.334,1.608.763,1.652,1.665.042.854-.763,1.319-1.437,1.71a8.027,8.027,0,0,1-4.822.739,51.746,51.746,0,0,1-7.837-1.317c-1.029-.242-1.033-.218-1.012-1.291.01-.491.023-.982.014-1.473a.509.509,0,0,1,.541-.6c2.175-.2,4.35-.418,7.045-.417" transform="translate(-363.18 -37.347)" fill="#039717"/>
        <path id="Path_1664" data-name="Path 1664" d="M373.322,130.952c-.5.034-.682-.287-.811-.671a4.163,4.163,0,0,1,.3-2.8c.62-1.768,2.1-2.811,3.377-4.032a45.7,45.7,0,0,1,5.706-4.242.413.413,0,0,1,.625.058c.491.451.994.891,1.521,1.3a.473.473,0,0,1,.134.736,42.116,42.116,0,0,1-2.55,3.424,26.676,26.676,0,0,1-2.918,3.3,11.642,11.642,0,0,1-4.345,2.666c-.341.1-.693.169-1.039.252" transform="translate(-358.757 -40.023)" fill="#039717"/>
        <path id="Path_1665" data-name="Path 1665" d="M414.254,132.262c-1.761,0-3.009-1.027-4.166-2.156a29.958,29.958,0,0,1-4.358-6.063c-.312-.511-.561-1.062-.877-1.572-.249-.4-.3-.712.153-1.009a5.479,5.479,0,0,0,.87-.729c.713-.731.619-.845,1.638-.083a30.07,30.07,0,0,1,7.359,7.483,6.055,6.055,0,0,1,.923,2.349c.226,1.375-.143,1.8-1.541,1.781" transform="translate(-362.484 -40.142)" fill="#039717"/>
      </g>
    </g>
    <g id="Group_1304" data-name="Group 1304" transform="translate(714.965 59)">
      <g id="Group_1303" data-name="Group 1303" clip-path="url(#clip-path)">
        <path id="Path_1667" data-name="Path 1667" d="M402.816,19.708,420.318,0l12.406,12.7L411.935,28.779Z" transform="translate(-46.487 0)" fill="#d4e826"/>
      </g>
    </g>
  </g>
</svg>
