<svg xmlns="http://www.w3.org/2000/svg" xmlns:xlink="http://www.w3.org/1999/xlink" width="42" height="42" viewBox="0 0 42 42">
  <defs>
    <filter id="Ellipse_477" x="0" y="0" width="42" height="42" filterUnits="userSpaceOnUse">
      <feOffset dy="3" input="SourceAlpha"/>
      <feGaussianBlur stdDeviation="3" result="blur"/>
      <feFlood flood-opacity="0.161"/>
      <feComposite operator="in" in2="blur"/>
      <feComposite in="SourceGraphic"/>
    </filter>
  </defs>
  <g id="Component_33_1" data-name="Component 33 – 1" transform="translate(9 6)">
    <g transform="matrix(1, 0, 0, 1, -9, -6)" filter="url(#Ellipse_477)">
      <circle id="Ellipse_477-2" data-name="Ellipse 477" cx="12" cy="12" r="12" transform="translate(9 6)" fill="#fff"/>
    </g>
    <g id="Mobile" transform="translate(6 5)">
      <rect id="Rectangle_975" data-name="Rectangle 975" width="12" height="14" fill="none"/>
      <path id="Path_259" data-name="Path 259" d="M8.91,0A.937.937,0,0,1,9.6.273a.8.8,0,0,1,.3.638V13.664a.8.8,0,0,1-.3.638.937.937,0,0,1-.693.273H.99A.937.937,0,0,1,.3,14.3a.8.8,0,0,1-.3-.638V.911A.8.8,0,0,1,.3.273.937.937,0,0,1,.99,0ZM8.217,10.931V2.459H1.683v8.472Zm-3.96,2.459a.937.937,0,0,0,.693.273.937.937,0,0,0,.693-.273.833.833,0,0,0,0-1.275.937.937,0,0,0-.693-.273.937.937,0,0,0-.693.273.833.833,0,0,0,0,1.275Z" transform="translate(0.825)" fill="#00abd1"/>
    </g>
    <circle id="Ellipse_478" data-name="Ellipse 478" cx="2.5" cy="2.5" r="2.5" transform="translate(16 20)" fill="#37c44d"/>
  </g>
</svg>
