<svg xmlns="http://www.w3.org/2000/svg" xmlns:xlink="http://www.w3.org/1999/xlink" width="78" height="78" viewBox="0 0 78 78">
  <defs>
    <filter id="Ellipse_426" x="0" y="0" width="78" height="78" filterUnits="userSpaceOnUse">
      <feOffset dy="3" input="SourceAlpha"/>
      <feGaussianBlur stdDeviation="3" result="blur"/>
      <feFlood flood-opacity="0.161"/>
      <feComposite operator="in" in2="blur"/>
      <feComposite in="SourceGraphic"/>
    </filter>
  </defs>
  <g id="Group_1098" data-name="Group 1098" transform="translate(9 6)">
    <g transform="matrix(1, 0, 0, 1, -9, -6)" filter="url(#Ellipse_426)">
      <circle id="Ellipse_426-2" data-name="Ellipse 426" cx="30" cy="30" r="30" transform="translate(9 6)" fill="#fff"/>
    </g>
    <g id="Mobile" transform="translate(16 12)">
      <rect id="Rectangle_975" data-name="Rectangle 975" width="29" height="36" fill="none"/>
      <path id="Path_259" data-name="Path 259" d="M21.993,0A2.313,2.313,0,0,1,23.7.675a1.969,1.969,0,0,1,.733,1.574V33.728A1.969,1.969,0,0,1,23.7,35.3a2.313,2.313,0,0,1-1.711.675H2.444A2.313,2.313,0,0,1,.733,35.3,1.969,1.969,0,0,1,0,33.728V2.249A1.969,1.969,0,0,1,.733.675,2.313,2.313,0,0,1,2.444,0ZM20.283,26.982V6.071H4.154V26.982Zm-9.775,6.071a2.313,2.313,0,0,0,1.711.675,2.313,2.313,0,0,0,1.711-.675,2.056,2.056,0,0,0,0-3.148,2.313,2.313,0,0,0-1.711-.675,2.313,2.313,0,0,0-1.711.675,2.056,2.056,0,0,0,0,3.148Z" transform="translate(2.037)" fill="#00abd1"/>
    </g>
  </g>
</svg>
