<svg id="Mobile" xmlns="http://www.w3.org/2000/svg" width="24" height="30" viewBox="0 0 24 30">
  <rect id="Rectangle_975" data-name="Rectangle 975" width="24" height="30" fill="none"/>
  <path id="Path_259" data-name="Path 259" d="M16.2,0a1.6,1.6,0,0,1,1.26.563A1.736,1.736,0,0,1,18,1.875v26.25a1.736,1.736,0,0,1-.54,1.313A1.6,1.6,0,0,1,16.2,30H1.8a1.6,1.6,0,0,1-1.26-.562A1.736,1.736,0,0,1,0,28.125V1.875A1.736,1.736,0,0,1,.54.563,1.6,1.6,0,0,1,1.8,0ZM14.94,22.5V5.063H3.06V22.5Zm-7.2,5.063a1.692,1.692,0,0,0,2.52,0,1.865,1.865,0,0,0,0-2.625,1.692,1.692,0,0,0-2.52,0,1.865,1.865,0,0,0,0,2.625Z" transform="translate(3)" fill="#00abd1"/>
</svg>
