<svg xmlns="http://www.w3.org/2000/svg" xmlns:xlink="http://www.w3.org/1999/xlink" width="462.293" height="462.293" viewBox="0 0 462.293 462.293">
  <defs>
    <clipPath id="clip-path">
      <path id="Path_1751" data-name="Path 1751" d="M1107.742,282.416c0,127.658,103.488,231.146,231.146,231.146s231.146-103.489,231.146-231.146S1466.547,51.269,1338.888,51.269s-231.146,103.488-231.146,231.147" transform="translate(-1107.742 -51.269)" fill="none"/>
    </clipPath>
  </defs>
  <g id="Group_1339" data-name="Group 1339" clip-path="url(#clip-path)">
    <path id="Path_1748" data-name="Path 1748" d="M82.182,553.547c6.549-.17,10.8-3.857,19.915,2.317,6.222,4.215-9.83,5.2-14.021,4.214-13.3-3.113-7.94-3.747-5.894-6.531m998.345,66.124q-1.831-.156-3.716-.251c-8.318-.412-15.059-5.946-24-5.13-8.371.764-19.168,8.046-20.677,3.136-8-26.014-46.106-28.375-45.1-35.765,1.571-11.556-14.734-12.34-24.545-17.33-13.21-6.719-22.577-16.438-35.745-26.564-88.66-68.176-39.661,51.132-167.448-39.156-16.185-11.436-30.923-8.41-45.981-1.433-2.918,1.352-.361,3.056-3.316,4.628-2.075,1.1-7.661-.806-9.845.34-22.266,11.682-20.138,13.8-49.793-.69-3.479-1.7-10.275,2.725-17.5,3.475a60.4,60.4,0,0,1-24.508-2.993c-3.452-1.353-8.257-6.861-11.574-7.986-28.977-9.833-61.716-6.314-85.652-4.439-7.614.6-12.969-3.311-18.8-2.244-5.513,1.009,1.946,2.635-3.069,3.7-20.187,4.3-37.509,7.629-55.1.719a116.917,116.917,0,0,0-29.469-7.185c-8.181-.9-18.144-.335-23.219-1.209-3.229-.557,8.337-3.782,5.178-4.3-32.742-5.344-62.816-3.321-92.013,1.249-14.279,2.235-21.851,15.189-38.1,14.694-24.993-.76-57.5,1.512-81.03,6.383-3.095.64-.043,1.951-3.027,2.655-3.406.8-7.733-.848-10.928.13-3.4,1.039.966,2.055-2.416,3.309a198.2,198.2,0,0,0-34.141,16.645c-8.18,4.969-24.5.972-30.618,3.3-4,1.52,32.25,18.091-14.034,14.17-17.461-1.478-19.3-4.63-41.878,5a1.892,1.892,0,0,1,1.181.634c.92,1.3-5.318,2.215-6.543,2.008-.122-.021-.236-.043-.346-.065-7.552,3.59-15.514,6.785-.922,7.218,7.562.224,15.552-1.881,21.228-.4,12.764,3.327-20.17,4.1-28.768,3.327-.709-.064-23.1,7.905-24.288,8.68v141.19H1080.528ZM62.6,553.667c3.341.223,7.089-.679,8.911,1.507,1.244,1.493-7.194,1.112-8.852.65-5.261-1.465-2.307-1.427-.059-2.157m45.71-5.088c.956,1.588-5.531,1.183-6.806.692-6.572-2.532,5.2-3.364,6.806-.692m-80.46,18.3c3.341.222,7.089-.68,8.911,1.507,1.244,1.493-7.194,1.112-8.852.65-5.261-1.465-2.307-1.428-.059-2.157m33.335-1.736c1.757,1.588-10.165,1.183-12.507.691-12.076-2.532,9.55-3.364,12.507-.691m633.076-45.733c6.549-.17,10.8-3.857,19.916,2.316,6.221,4.216-9.831,5.2-14.022,4.215-13.3-3.113-7.94-3.747-5.893-6.531m-19.58.12c3.341.223,7.089-.679,8.911,1.507,1.244,1.493-7.194,1.111-8.852.65-5.26-1.465-2.307-1.427-.058-2.157m45.71-5.089c.956,1.588-5.531,1.183-6.806.692-6.572-2.532,5.2-3.364,6.806-.692m-55.256,7.348c12.764,3.327-20.17,4.1-28.768,3.327-25.877-2.34-18.4-5.025-4.036-4.968,3.662.014,7.392,1.918,11.577,2.042,7.562.225,15.551-1.881,21.227-.4m-25.2,10.949c3.341.222,7.088-.68,8.91,1.506,1.244,1.493-7.194,1.112-8.852.651-5.26-1.465-2.307-1.427-.058-2.157M673.269,531c1.757,1.588-10.164,1.183-12.507.691-12.077-2.532,9.55-3.363,12.507-.691m-21.547-17.974c.92,1.3-5.318,2.215-6.543,2.008-6.319-1.069,5-4.2,6.543-2.008" transform="translate(-614.727 -240.215)" fill="#fdc005" fill-rule="evenodd"/>
    <path id="Path_1749" data-name="Path 1749" d="M0,771.6c32.063-3.646,125.8-3.9,131.844-19.406,7.017-17.992,66.854-5.4,65.974-10.511-3.231-18.753-3.06-7.823,16.7-20.6,4.092-2.646,28.827-2.817,39.645-9.031,9.114-5.234,2.571-15.7,23.353-26.1,8.264-4.136,28.783.058,39.966-6.172,14.195-7.908,27.121-5.816,40.327-.991,2.559.935.317,2.113,2.908,3.2,1.82.763,6.564.318,8.634.235,16.093-.645,7.493-8.166,15.513-6.861,24.023,3.912,26.012-15.422,38.118-21.173,6.934-3.294,7.2-6.942,13.675-8.943,3.027-.935,7.243-4.742,10.15-5.522,23.177-6.222,49.616-24.366,66.415-23.5,34.639,1.78,15.155,19.289,39.938,12.03,20.768-6.083,56.755,30.629,65.521,21.709,4.867-4.952-3.411-11.984,1.028-15.242,5.169-3.8,51.005-3.344,62.016-1.985,12.523,1.546,48.833,12.75,63.082,12.4,13.3-.328,48.171,29.9,59.883,31.586,4.574.658-.746,4.788,4.1,5.373,21.229,2.563,43.8,5.259,65,15.291,7.2,3.406,21.484.672,26.853,2.28,3.511,1.051,52.216,4.4,55.025,5.057,12.686,2.988-42.532,4-27.85,7.919,9.872,2.635,36.91,5.471,56,15.294,38.463,19.788,35.2-.305,72.288,32.556V771.6Z" transform="translate(-614.727 -302.695)" fill="#87d906" fill-rule="evenodd"/>
    <path id="Path_1750" data-name="Path 1750" d="M320.405,786.492c-1.082.2-2.517.421-2.987.536a49.153,49.153,0,0,1-6.226.663c-3.541.352-2.907,1.825-12.6.2-3.074-.516-12.079-.331-15.63-.3l-4.489-.054-5.335-.141c-3.745.015-11.821-.076-15.285-.335-2.528-.189-5.079-.208-7.6-.451l-7.084-.552c-3.692-.42-12.013-1.234-15.847-1.191l-8.959-.371c-3.815-.09-15.22-.275-17.72.246l-7.769,1.755-6.1,1.041a54.759,54.759,0,0,0-6.543.886l-9.22,1.012-12.024.5c-1.613-.107-24.561.481-27.629.544-21.017.434-27.838,1.588-48.678,3.881C53.952,797.517,24.622,802.636,0,805.192v28.475c158.043-.5,836.071,3.862,746.459-6.428-1.339-.154-3.054.012-4.477-.185-99.409-13.76-49.039-4.438-144.463-17.093-114.412-11.895-81.315-3.568-175.483-16.3l-17.125-2.5-16.271-1.083-10.534-2.032-21.82-.858-9.274-.825Z" transform="translate(-614.727 -377.552)" fill="#fd1e0d"/>
  </g>
</svg>
