<svg xmlns="http://www.w3.org/2000/svg" xmlns:xlink="http://www.w3.org/1999/xlink" width="88" height="88" viewBox="0 0 88 88">
  <defs>
    <filter id="Rectangle_1761" x="0" y="0" width="88" height="88" filterUnits="userSpaceOnUse">
      <feOffset dy="3" input="SourceAlpha"/>
      <feGaussianBlur stdDeviation="3" result="blur"/>
      <feFlood flood-opacity="0.161"/>
      <feComposite operator="in" in2="blur"/>
      <feComposite in="SourceGraphic"/>
    </filter>
  </defs>
  <g id="Group_1814" data-name="Group 1814" transform="translate(-192 -730)">
    <g transform="matrix(1, 0, 0, 1, 192, 730)" filter="url(#Rectangle_1761)">
      <g id="Rectangle_1761-2" data-name="Rectangle 1761" transform="translate(9 6)" fill="#fff" stroke="#707070" stroke-width="0.05">
        <rect width="70" height="70" rx="20" stroke="none"/>
        <rect x="0.025" y="0.025" width="69.95" height="69.95" rx="19.975" fill="none"/>
      </g>
    </g>
    <path id="Path_1889" data-name="Path 1889" d="M31.2,25.333a1.532,1.532,0,0,0-2.14-.025l-7.3,7.079c-2.086-1.557-4.264-2.383-5.532-1.473-2.292,1.646-3.663,6.151-9,6.936s-11.542,7.169-3.007,15.7,14.925,2.33,15.71-3.005,5.294-6.705,6.94-9c.889-1.237.121-3.342-1.367-5.382l7.144-7.288a1.522,1.522,0,0,0-.032-2.132ZM12.365,51.256a.187.187,0,0,1-.133-.055l-.847-.847-.869-.249a.734.734,0,0,1-.315-.185L7.85,47.57a.736.736,0,0,1-.185-.315l-.246-.864L6.6,45.573a.187.187,0,0,1,0-.266l1.353-1.291a.189.189,0,0,1,.267,0l5.631,5.628a.188.188,0,0,1,0,.266L12.5,51.2a.189.189,0,0,1-.133.055M30.116,25.9a.52.52,0,0,1,.369.153l1.411,1.41a.516.516,0,0,1,.018.718l-1.084,1.106L28.7,27.154a.267.267,0,0,0-.055-.036l1.115-1.081a.517.517,0,0,1,.357-.142m-4.538,8.745a.256.256,0,0,0-.022-.032l-2.14-2.138a.307.307,0,0,0-.2-.088l1.576-1.527,2.2,2.2a.3.3,0,0,0,.091.061Zm-8.87,10.523a4.143,4.143,0,1,1,0-8.285q.2,0,.4.019a4.143,4.143,0,0,1-.4,8.266m4.362-8.5a6.208,6.208,0,0,0-1.27-.97l2.235-2.167a.286.286,0,0,0,.082.182l2.2,2.2s.006,0,.009.006l-2.173,2.217a6.136,6.136,0,0,0-1.086-1.469m7.225-4.794a.3.3,0,0,0-.072-.12l-2.139-2.138-.007,0,1.3-1.256a.3.3,0,0,0,.027.04l2.174,2.173Z" transform="translate(215.001 734.745)" fill="#00abd1"/>
    <path id="Path_1890" data-name="Path 1890" d="M101.372,2.385l-.06.06a.657.657,0,0,0-.089.819l.528-.518.621-.61.549-.539a.659.659,0,0,0-.837.077l-.1.1-.752-.712a.435.435,0,1,0-.6.63Z" transform="translate(148.368 750.626)" fill="#00abd1"/>
    <path id="Path_1891" data-name="Path 1891" d="M115.713,15.064a.657.657,0,0,0,.057-.807l-.438.446-.609.62-.62.63a.659.659,0,0,0,.816-.091l.182-.182.809.767a.435.435,0,0,0,.6-.63Z" transform="translate(139.351 741.793)" fill="#00abd1"/>
    <path id="Path_1892" data-name="Path 1892" d="M104.371,3.031l-1.477-1.475L101.415.078A.264.264,0,0,0,101.227,0a.269.269,0,0,0-.189.077L99.864,1.231l-.523.514-.621.609-.522.514L96.1,4.923a.829.829,0,0,0-.235.448l-.3,1.744a.511.511,0,0,0,.143.45l.585.585.586.585a.51.51,0,0,0,.361.15.479.479,0,0,0,.088-.008l1.745-.3a.825.825,0,0,0,.45-.234l2.055-2.091.6-.614.609-.62.427-.434,1.154-1.173a.267.267,0,0,0,0-.378" transform="translate(151.646 751.249)" fill="#00abd1"/>
    <rect id="Rectangle_1597" data-name="Rectangle 1597" width="41.096" height="41.256" transform="translate(215 751.249)" fill="none"/>
  </g>
</svg>
