<svg id="Phone" xmlns="http://www.w3.org/2000/svg" width="15" height="15" viewBox="0 0 15 15">
  <rect id="Rectangle_320" data-name="Rectangle 320" width="15" height="15" fill="none"/>
  <path id="Path_110" data-name="Path 110" d="M8.6,10.59l1.589-1.456A.486.486,0,0,1,10.59,9l.265.132,3.707,1.721c.265.132.265.265.265.53a3.356,3.356,0,0,1-1.059,2.383,3.792,3.792,0,0,1-2.78,1.059A8.066,8.066,0,0,1,7.281,13.9a17.353,17.353,0,0,1-3.707-2.648A22.547,22.547,0,0,1,1.589,8.34,18.3,18.3,0,0,1,.265,5.427,8.146,8.146,0,0,1,0,2.912,3.479,3.479,0,0,1,.927.927,4.026,4.026,0,0,1,3.442,0a.688.688,0,0,1,.53.265L5.957,3.971a.462.462,0,0,0,.132.265.486.486,0,0,1-.132.4L4.236,6.222a.591.591,0,0,0,0,.662A12.641,12.641,0,0,0,5.825,9a13.366,13.366,0,0,0,2.118,1.721C8.207,10.855,8.472,10.855,8.6,10.59Z" fill="#00abd1"/>
</svg>
