<svg xmlns="http://www.w3.org/2000/svg" xmlns:xlink="http://www.w3.org/1999/xlink" width="88" height="88" viewBox="0 0 88 88">
  <defs>
    <filter id="Rectangle_1759" x="0" y="0" width="88" height="88" filterUnits="userSpaceOnUse">
      <feOffset dy="3" input="SourceAlpha"/>
      <feGaussianBlur stdDeviation="3" result="blur"/>
      <feFlood flood-opacity="0.161"/>
      <feComposite operator="in" in2="blur"/>
      <feComposite in="SourceGraphic"/>
    </filter>
  </defs>
  <g id="Component_296_1" data-name="Component 296 – 1" transform="translate(9 6)">
    <g transform="matrix(1, 0, 0, 1, -9, -6)" filter="url(#Rectangle_1759)">
      <g id="Rectangle_1759-2" data-name="Rectangle 1759" transform="translate(9 6)" fill="#fff" stroke="#707070" stroke-width="0.05">
        <rect width="70" height="70" rx="20" stroke="none"/>
        <rect x="0.025" y="0.025" width="69.95" height="69.95" rx="19.975" fill="none"/>
      </g>
    </g>
    <path id="Path_1733" data-name="Path 1733" d="M86.6,69H77.4l.982,4.006h8.46Z" transform="translate(-30.074 -25.974)" fill="#00abd1"/>
    <path id="Path_1734" data-name="Path 1734" d="M12.473,69l-.243,4.006h8.46L21.672,69Z" transform="translate(2.018 -25.974)" fill="#00abd1"/>
    <path id="Path_1735" data-name="Path 1735" d="M18.9,57.376h7.521l.91-3.71H19.38Z" transform="translate(-0.178 -17.532)" fill="#00abd1"/>
    <path id="Path_1736" data-name="Path 1736" d="M82.068,57.376l-.478-3.71H73.637l.91,3.71Z" transform="translate(-29.649 -17.532)" fill="#00abd1"/>
    <path id="Path_1737" data-name="Path 1737" d="M26.312,42.462h6.131l1.042-4.247h-6.4Z" transform="translate(-4.281 -8.889)" fill="#00abd1"/>
    <path id="Path_1738" data-name="Path 1738" d="M76.247,38.215h-6.4l1.041,4.247h6.131Z" transform="translate(-27.914 -8.889)" fill="#00abd1"/>
    <path id="Path_1739" data-name="Path 1739" d="M39.348,8.09v.462H36.041l-1.43,6.111h5.882l.818-3.307h7.426l.817,3.307h5.882L54,8.552H51.023V3.924h.8a.751.751,0,0,0,.754-.747V.747A.751.751,0,0,0,51.821,0h-13.6a.751.751,0,0,0-.753.747V3.177a.751.751,0,0,0,.753.747h1.124V8.09ZM43.8,5.371h2.767V9.08H43.8V5.371Z" transform="translate(-9.465 12.249)" fill="#00abd1"/>
    <rect id="Rectangle_1582" data-name="Rectangle 1582" width="16.9" height="2.8" transform="translate(27.108 49.517)" fill="#00abd1"/>
    <path id="Path_1740" data-name="Path 1740" d="M56.276,78.379v-2.47H41.344v2.58H56.276Z" transform="translate(-13.253 -30.698)" fill="#00abd1"/>
    <path id="Path_1741" data-name="Path 1741" d="M56.556,67.585V66.5H43.591v2.36H56.556Z" transform="translate(-14.516 -25.374)" fill="#00abd1"/>
    <rect id="Rectangle_1583" data-name="Rectangle 1583" width="10.996" height="2.139" transform="translate(30.06 37.259)" fill="#00abd1"/>
    <path id="Path_1742" data-name="Path 1742" d="M48.09,49.741v1.38h9.028V49.2H48.09Z" transform="translate(-17.047 -15.59)" fill="#00abd1"/>
    <rect id="Rectangle_1584" data-name="Rectangle 1584" width="7.061" height="1.699" transform="translate(32.027 30.188)" fill="#00abd1"/>
    <path id="Path_1743" data-name="Path 1743" d="M57.679,34.867v-.935H52.587v1.479h5.092v-.544Z" transform="translate(-19.575 -6.949)" fill="#00abd1"/>
    <path id="Path_1744" data-name="Path 1744" d="M82.416,87.036v2.9H96.975V85.174H82.416Z" transform="translate(-36.35 -35.941)" fill="#00abd1"/>
    <path id="Path_1745" data-name="Path 1745" d="M0,89.94H14.943V85.174H0Z" transform="translate(10 -35.94)" fill="#00abd1"/>
    <rect id="Rectangle_1585" data-name="Rectangle 1585" width="50.624" height="41.751" transform="translate(10 12.249)" fill="none"/>
  </g>
</svg>
