<svg xmlns="http://www.w3.org/2000/svg" xmlns:xlink="http://www.w3.org/1999/xlink" width="88" height="88" viewBox="0 0 88 88">
  <defs>
    <filter id="Rectangle_1762" x="0" y="0" width="88" height="88" filterUnits="userSpaceOnUse">
      <feOffset dy="3" input="SourceAlpha"/>
      <feGaussianBlur stdDeviation="3" result="blur"/>
      <feFlood flood-opacity="0.161"/>
      <feComposite operator="in" in2="blur"/>
      <feComposite in="SourceGraphic"/>
    </filter>
  </defs>
  <g id="Group_1815" data-name="Group 1815" transform="translate(-287 -730)">
    <g transform="matrix(1, 0, 0, 1, 287, 730)" filter="url(#Rectangle_1762)">
      <g id="Rectangle_1762-2" data-name="Rectangle 1762" transform="translate(9 6)" fill="#fff" stroke="#707070" stroke-width="0.05">
        <rect width="70" height="70" rx="20" stroke="none"/>
        <rect x="0.025" y="0.025" width="69.95" height="69.95" rx="19.975" fill="none"/>
      </g>
    </g>
    <path id="Path_5584" data-name="Path 5584" d="M11.391,86.461H36.859a.441.441,0,0,0,.424-.559L34.15,74.594a.763.763,0,0,0-.734-.558H14.833a.764.764,0,0,0-.735.558L10.966,85.9a.441.441,0,0,0,.425.558M20.4,75.618a3.938,3.938,0,0,0,7.653,0h4.742l1.432,5.168-.511.512-2.072-2.061a.434.434,0,0,0-.616,0l-2.064,2.07-2.072-2.061a.435.435,0,0,0-.615,0l-2.063,2.07-2.072-2.06a.435.435,0,0,0-.616,0l-2.062,2.07-2.07-2.06a.435.435,0,0,0-.616,0l-2.063,2.07-.66-.656,1.4-5.069Zm14.962,9.26H12.891l.266-.961H35.093Zm-20.953-2.61a.436.436,0,0,0,.616,0l2.063-2.07,2.07,2.06a.436.436,0,0,0,.616,0l2.062-2.07,2.072,2.06a.435.435,0,0,0,.616,0l2.063-2.07,2.072,2.061a.436.436,0,0,0,.616,0l2.064-2.07,2.072,2.06a.437.437,0,0,0,.616,0l.468-.47.436,1.573H13.321l.464-1.674Z" transform="translate(306.38 705.494)" fill="#00abd1"/>
    <path id="Path_5585" data-name="Path 5585" d="M26.113,10.066l-5.6-8.7a2.6,2.6,0,0,0-1.8-1.314A10.7,10.7,0,0,0,16.49.061a2.56,2.56,0,0,0-1.743,1.308l-5.611,8.72C3.689,11.212,0,13.374,0,15.858c0,1.185.842,2.3,2.311,3.255a19.048,19.048,0,0,0,5.881,2.3c.138.033.272.068.412.1.006,0,.008,0,.011,0-.142-.036-.283-.072-.424-.112a13.182,13.182,0,0,1-1.663-.608A13.548,13.548,0,0,1,4.417,19.64a.138.138,0,0,1,.032-.245l.007,0,1.186-.411q-1.014-.824-2.018-1.66a.225.225,0,0,1,.12-.4h.007L6.864,16.6l.867-4.057.047-.22a.33.33,0,0,1,.392-.254.326.326,0,0,1,.088.032l.009.005.307.17q1.064.584,2.124,1.175l.534.3.532.3.479.267.465-1.19.4-1.014.31-.794.011-.03.031-.078.43-1.1a.384.384,0,0,1,.5-.218.376.376,0,0,1,.117.072l0,0,.627.57.531.481.119.108.182.165.237.215,1.818,1.649,1.66-1.5.4-.359.123-.111.01-.009.5-.45.83-.752,0,0a.382.382,0,0,1,.613.145l.46,1.179.055.139.158.406.441,1.13.529,1.355.476-.265.534-.3q1.185-.661,2.375-1.314c.2-.108.395-.22.593-.327l.009,0a.326.326,0,0,1,.443.132.343.343,0,0,1,.032.087l.115.539.8,3.735,3.235.237h.005a.22.22,0,0,1,.2.236.224.224,0,0,1-.11.175c-.864.5-1.734.986-2.6,1.474l.856.134h.008a.123.123,0,0,1,.1.141.119.119,0,0,1-.032.065,6.564,6.564,0,0,1-.976.823c-.343.245-.7.471-1.06.685s-.735.407-1.115.585c-.211.1-.426.187-.643.269-.093.035-.187.061-.282.091.1-.021.185-.045.28-.067a19.743,19.743,0,0,0,5.815-2.208c1.588-.988,2.507-2.143,2.507-3.378,0-2.5-3.737-4.675-9.243-5.791M20,4.3a.593.593,0,0,1,.823.161l2.545,3.777a.593.593,0,1,1-.984.662L19.843,5.122A.593.593,0,0,1,20,4.3M17.948,1.26a.592.592,0,0,1,.824.159l.9,1.328a.593.593,0,1,1-.982.665l-.9-1.328a.593.593,0,0,1,.159-.824" transform="translate(313 750.249)" fill="#00abd1"/>
    <path id="Path_5586" data-name="Path 5586" d="M12.656,35.871l-1.235.368A13.775,13.775,0,0,0,13.2,37.3a16.481,16.481,0,0,0,1.593.7c.142.053.288.1.432.148a.084.084,0,0,0-.032-.062c-.148-.091-.284-.185-.413-.28a2.325,2.325,0,0,1-1.13-1.774c0-.827.68-1.595,1.843-2.23.218-.119.455-.233.706-.343q.341-.148.719-.284a22.6,22.6,0,0,1,7.367-1.107,22.8,22.8,0,0,1,7.261,1.069q.378.132.721.277.376.16.705.333c1.225.646,1.948,1.434,1.948,2.285a2.426,2.426,0,0,1-1.262,1.87c-.09.062-.182.125-.281.186a.083.083,0,0,0-.032.068c.1-.038.2-.073.3-.117.206-.091.409-.191.608-.3.367-.2.723-.416,1.073-.641s.69-.466,1.017-.721a7.4,7.4,0,0,0,.728-.651l-1.057-.115a.156.156,0,0,1-.066-.286l.007,0q1.153-.718,2.312-1.427l-2.732-.126a.263.263,0,0,1-.244-.2l0-.008-.972-4.008q-1.25.724-2.509,1.435l-.524.3-.515.293-.384.218a.359.359,0,0,1-.49-.134.285.285,0,0,1-.021-.043l0-.006-.749-1.87-.407-1.017-.307-.766-.011-.028-.043-.108-.109-.272-.152.14-.226.209-.033.03-.219.2-.479.442L24.9,30.653a.406.406,0,0,1-.549,0l-2.462-2.27-.479-.442-.011-.01-.093-.085L21,27.563l-.127.318-.023.059-.1.256-.334.834-1.038,2.591v0a.361.361,0,0,1-.469.2.394.394,0,0,1-.045-.022l-.938-.533-.519-.3-.525-.3q-.975-.553-1.946-1.113l-.97,4,0,.007a.267.267,0,0,1-.238.2l-2.791.215c.6.524,1.2,1.047,1.787,1.577l.006.005a.174.174,0,0,1,.013.245.168.168,0,0,1-.079.05m22.575-1.549a.351.351,0,1,1-.372.351.361.361,0,0,1,.372-.351m-2.723-2.061a.573.573,0,1,1,.571.539.578.578,0,0,1-.479-.247.515.515,0,0,1-.083-.212.494.494,0,0,1-.009-.081m-5.254-1.953a.721.721,0,1,1-.763.72.743.743,0,0,1,.763-.72m-4.735.72a.764.764,0,1,1-.763-.72.742.742,0,0,1,.763.72m-6.4.694a.6.6,0,0,1,.123.013.549.549,0,0,1,.442.468.564.564,0,0,1,.006.057.528.528,0,0,1-.222.424.589.589,0,0,1-.656.03.531.531,0,0,1-.266-.454.556.556,0,0,1,.572-.539M13.3,34.46a.351.351,0,1,1-.372.351.362.362,0,0,1,.372-.351" transform="translate(306.395 733.588)" fill="#00abd1"/>
    <path id="Path_5587" data-name="Path 5587" d="M18.364,55.34a5.458,5.458,0,0,0,2.785-.513,8.958,8.958,0,0,0,11.736.02,5.43,5.43,0,0,0,2.738.493,4.718,4.718,0,0,0,2.819-1.352,7.706,7.706,0,0,1-2.839.42,5.917,5.917,0,0,1-1.817-.456,8.93,8.93,0,0,0,2.177-5.118,3.7,3.7,0,0,0-.568-.563,5.644,5.644,0,0,0-.593-.416c0,.068.01.133.01.2a7.748,7.748,0,0,1-2.146,5.352c-.725-.393-1.451-.851-2.3-1.213a3.313,3.313,0,0,0-1.637-.3,1.835,1.835,0,0,0-1.332.885,1.947,1.947,0,0,1,1.335-.306,3.336,3.336,0,0,1,1.209.547c.577.374,1.161.815,1.8,1.213a7.752,7.752,0,0,1-2.736,1.341l-.546-1.321a.592.592,0,0,0-.547-.365H26.092a.593.593,0,0,0-.547.365L25,55.563a7.747,7.747,0,0,1-2.724-1.354c.624-.392,1.2-.821,1.763-1.188a3.338,3.338,0,0,1,1.209-.547,1.948,1.948,0,0,1,1.335.306,1.835,1.835,0,0,0-1.332-.885,3.313,3.313,0,0,0-1.637.3c-.827.354-1.54.8-2.249,1.187a7.747,7.747,0,0,1-2.123-5.326c0-.075.009-.148.011-.222a5.7,5.7,0,0,0-.6.41,3.789,3.789,0,0,0-.57.551,8.933,8.933,0,0,0,2.162,5.137,5.964,5.964,0,0,1-1.869.477,7.7,7.7,0,0,1-2.839-.42,4.718,4.718,0,0,0,2.819,1.352" transform="translate(303.603 721.334)" fill="#00abd1"/>
    <path id="Path_5588" data-name="Path 5588" d="M32.043,48.141a1.211,1.211,0,1,0,1.211-1.211,1.211,1.211,0,0,0-1.211,1.211" transform="translate(293.63 721.88)" fill="#00abd1"/>
    <path id="Path_5589" data-name="Path 5589" d="M50.2,48.141a1.211,1.211,0,1,0,1.211-1.211A1.211,1.211,0,0,0,50.2,48.141" transform="translate(282.655 721.88)" fill="#00abd1"/>
    <path id="Path_5590" data-name="Path 5590" d="M25.205,93.779a.549.549,0,1,0-.549-.549.549.549,0,0,0,.549.549" transform="translate(298.096 694.224)" fill="#00abd1"/>
    <path id="Path_5591" data-name="Path 5591" d="M38.1,93.779a.549.549,0,1,0-.549-.549.549.549,0,0,0,.549.549" transform="translate(290.3 694.224)" fill="#00abd1"/>
    <path id="Path_5592" data-name="Path 5592" d="M49.944,93.779a.549.549,0,1,0-.549-.549.549.549,0,0,0,.549.549" transform="translate(283.14 694.224)" fill="#00abd1"/>
    <path id="Path_5593" data-name="Path 5593" d="M61.9,93.779a.549.549,0,1,0-.549-.549.55.55,0,0,0,.549.549" transform="translate(275.913 694.224)" fill="#00abd1"/>
    <rect id="Rectangle_1740" data-name="Rectangle 1740" width="35.356" height="41.706" transform="translate(313 750.249)" fill="none"/>
  </g>
</svg>
