<svg id="Page-1" xmlns="http://www.w3.org/2000/svg" width="17.826" height="14.261" viewBox="0 0 17.826 14.261">
  <g id="_724-Portal" data-name="724-Portal">
    <g id="shortcuts">
      <path id="att_icon_wifi_lg" d="M13.059,174.867a6.646,6.646,0,0,0-8.289,0,.862.862,0,0,0-.138,1.22.88.88,0,0,0,1.231.137,4.883,4.883,0,0,1,6.1,0,.882.882,0,0,0,1.232-.131.863.863,0,0,0-.132-1.221M15.264,172a10.136,10.136,0,0,0-12.695-.05.863.863,0,0,0-.141,1.22.881.881,0,0,0,1.231.14,8.374,8.374,0,0,1,10.5.038.882.882,0,0,0,1.232-.126A.863.863,0,0,0,15.264,172m2.253-2.846a13.443,13.443,0,0,0-6.055-2.912A13.189,13.189,0,0,0,.3,169.229a.863.863,0,0,0-.09,1.225.88.88,0,0,0,1.235.089,11.443,11.443,0,0,1,9.675-2.595,11.677,11.677,0,0,1,5.259,2.532.88.88,0,0,0,1.235-.1.862.862,0,0,0-.1-1.224M10.387,178.8a1.473,1.473,0,1,1-1.473-1.46,1.467,1.467,0,0,1,1.473,1.46" transform="translate(0 -166)" fill="#00abd1" fill-rule="evenodd"/>
    </g>
  </g>
</svg>
